<svg id="OUT" xmlns="http://www.w3.org/2000/svg" viewBox="0 0 192 192"><defs><style>.cls-1{fill:#004482;}.cls-1,.cls-2,.cls-3,.cls-4{fill-rule:evenodd;}.cls-2{fill:#659ad2;}.cls-3{fill:#fff;}.cls-4{fill:#00599c;}</style></defs><path id="path2" class="cls-1" d="M92.66,32.87a6.85,6.85,0,0,1,6.68,0c10.22,5.74,41,23,51.22,28.75a6.47,6.47,0,0,1,3.34,5.63v57.5a6.47,6.47,0,0,1-3.34,5.63L99.34,159.13a6.85,6.85,0,0,1-6.68,0L41.44,130.38a6.47,6.47,0,0,1-3.34-5.63V67.25a6.47,6.47,0,0,1,3.34-5.63L92.66,32.87Z"/><path id="path4" class="cls-2" d="M39,127.71a5.25,5.25,0,0,1-.92-3.5V67a6.43,6.43,0,0,1,3.33-5.6l51-28.59a7.34,7.34,0,0,1,6.92,0c10.19,5.7,40.75,22.73,50.94,28.44a6.39,6.39,0,0,1,2,1.75Z"/><path id="path6" class="cls-3" d="M96,53.33A42.67,42.67,0,1,1,53.33,96,42.69,42.69,0,0,1,96,53.33Zm0,21.34A21.33,21.33,0,1,1,74.67,96,21.34,21.34,0,0,1,96,74.67Z"/><path id="path8" class="cls-4" d="M152.34,63.1c1.57,1.47,1.54,3.69,1.54,5.44,0,11.56-.1,44.46,0,56a6.53,6.53,0,0,1-1,3.43L94.76,96Z"/></svg>