<svg id="OUT" xmlns="http://www.w3.org/2000/svg" viewBox="0 0 192 192"><defs><style>.cls-1{fill:#00599c;}.cls-2{fill:#004482;}.cls-3{fill:#659ad2;}.cls-4{fill:#fff;}</style></defs><path class="cls-1" d="M152.35,128.54a10.24,10.24,0,0,0,1.47-4.95V68.37a10.37,10.37,0,0,0-1.47-5L96,96Z"/><path class="cls-2" d="M101,159.87l47.81-27.59a10.25,10.25,0,0,0,3.55-3.74L96,96,39.65,128.54a9.94,9.94,0,0,0,3.55,3.74L91,159.87A11,11,0,0,0,101,159.87Z"/><path class="cls-3" d="M152.35,63.46a9.94,9.94,0,0,0-3.55-3.74L101,32.13a11.12,11.12,0,0,0-10,0L43.17,59.72a11.13,11.13,0,0,0-5,8.65v55.22a10.34,10.34,0,0,0,1.47,4.95L96,96Z"/><path class="cls-4" d="M96,134.55a38.55,38.55,0,1,1,33.37-57.82L112.7,86.36a19.27,19.27,0,1,0,0,19.28l16.67,9.63A38.71,38.71,0,0,1,96,134.55Z"/><polygon class="cls-4" points="134.55 93.85 130.28 93.85 130.28 89.58 125.97 89.58 125.97 93.85 121.7 93.85 121.7 98.12 125.97 98.12 125.97 102.42 130.28 102.42 130.28 98.12 134.55 98.12 134.55 93.85"/><polygon class="cls-4" points="150.61 93.85 146.34 93.85 146.34 89.58 142.03 89.58 142.03 93.85 137.76 93.85 137.76 98.12 142.03 98.12 142.03 102.42 146.34 102.42 146.34 98.12 150.61 98.12 150.61 93.85"/></svg>