<svg id="OUT" xmlns="http://www.w3.org/2000/svg" viewBox="0 0 192 192"><defs><style>.cls-1{fill:#5382a1;}.cls-2{fill:#f8981d;}</style></defs><path class="cls-1" d="M79.15,131.09s-4.9,2.85,3.49,3.82c10.18,1.16,15.38,1,26.59-1.13a45.73,45.73,0,0,0,7.06,3.45c-25.13,10.77-56.87-.62-37.14-6.14"/><path class="cls-1" d="M76.08,117s-5.5,4.07,2.9,4.94c10.87,1.12,19.45,1.21,34.3-1.65a15.21,15.21,0,0,0,5.28,3.22c-30.38,8.89-64.22.7-42.48-6.51"/><path class="cls-2" d="M102,93.2c6.19,7.12-1.63,13.54-1.63,13.54s15.73-8.12,8.5-18.28C102.1,79,96.93,74.27,124.93,58c0,0-43.95,11-23,35.17"/><path class="cls-1" d="M135.21,141.49s3.63,3-4,5.3c-14.51,4.4-60.37,5.72-73.12.18-4.58-2,4-4.76,6.72-5.34a17.52,17.52,0,0,1,4.42-.5c-5.09-3.59-32.92,7.05-14.13,10.09,51.23,8.31,93.4-3.74,80.11-9.73"/><path class="cls-1" d="M81.51,102.47S58.18,108,73.25,110c6.36.85,19,.66,30.86-.33,9.66-.82,19.35-2.55,19.35-2.55a41.54,41.54,0,0,0-5.87,3.14c-23.69,6.23-69.46,3.33-56.28-3,11.14-5.39,20.2-4.78,20.2-4.78"/><path class="cls-1" d="M120.16,125.87c24.08-12.52,12.94-24.54,5.17-22.92a17.12,17.12,0,0,0-2.75.74,4.34,4.34,0,0,1,2.06-1.59c15.37-5.41,27.2,15.94-5,24.4a2.19,2.19,0,0,0,.49-.63"/><path class="cls-2" d="M108.84,31.82s13.34,13.34-12.65,33.86c-20.84,16.45-4.75,25.84,0,36.56C84,91.26,75.09,81.6,81.08,72.61c8.79-13.2,33.15-19.6,27.76-40.79"/><path class="cls-1" d="M83.88,159.78C107,161.26,142.5,159,143.34,148c0,0-1.62,4.15-19.11,7.44-19.73,3.71-44.07,3.28-58.5.9,0,0,3,2.45,18.15,3.42"/></svg>