<svg id="OUT" xmlns="http://www.w3.org/2000/svg" xmlns:xlink="http://www.w3.org/1999/xlink" viewBox="0 0 192 192"><defs><style>.cls-1{fill:url(#linear-gradient);}.cls-2{fill:url(#linear-gradient-2);}</style><linearGradient id="linear-gradient" x1="880.04" y1="-527.72" x2="1000.47" y2="-631.32" gradientTransform="matrix(0.56, 0, 0, -0.57, -463.6, -262.26)" gradientUnits="userSpaceOnUse"><stop offset="0" stop-color="#5a9fd4"/><stop offset="1" stop-color="#306998"/></linearGradient><linearGradient id="linear-gradient-2" x1="1047.06" y1="-694.01" x2="1003.99" y2="-633.16" gradientTransform="matrix(0.56, 0, 0, -0.57, -463.6, -262.26)" gradientUnits="userSpaceOnUse"><stop offset="0" stop-color="#ffd43b"/><stop offset="1" stop-color="#ffe873"/></linearGradient></defs><path class="cls-1" d="M95.09,34a84.39,84.39,0,0,0-14.15,1.2C68.4,37.37,66.13,42,66.13,50.55V61.84H95.74V65.6H55c-8.61,0-16.15,5.17-18.5,15-2.72,11.28-2.84,18.32,0,30.09,2.1,8.77,7.13,15,15.74,15H62.44V112.18a18.82,18.82,0,0,1,18.5-18.4h29.57a14.91,14.91,0,0,0,14.81-15V50.55c0-8-6.77-14-14.81-15.4a92.31,92.31,0,0,0-15.43-1.21ZM79.07,43a5.65,5.65,0,1,1-5.56,5.66A5.62,5.62,0,0,1,79.07,43Z"/><path class="cls-2" d="M129,65.59V78.74c0,10.2-8.64,18.78-18.5,18.78H80.94a15.11,15.11,0,0,0-14.81,15v28.2c0,8,7,12.74,14.81,15a49.44,49.44,0,0,0,29.57,0c7.46-2.16,14.81-6.5,14.81-15V129.47H95.75v-3.76h44.39c8.6,0,11.81-6,14.81-15,3.09-9.28,3-18.2,0-30.1-2.13-8.56-6.19-15-14.81-15H129ZM112.38,137a5.65,5.65,0,1,1-5.56,5.63A5.6,5.6,0,0,1,112.38,137Z"/></svg>